<svg data-name="apple-tv" xmlns="http://www.w3.org/2000/svg" viewBox="0 0 85.94 32.61"><path d="M18 5.23A7.3 7.3 0 0019.68 0a7.21 7.21 0 00-4.79 2.5 6.94 6.94 0 00-1.71 5A6 6 0 0018 5.23m1.57 2.64c-2.67-.16-4.93 1.52-6.2 1.52S10.14 8 8 8a7.85 7.85 0 00-6.67 4.09c-2.87 5-.77 12.35 2 16.39 1.35 1.92 3 4.21 5.13 4.13s2.82-1.33 5.29-1.33 3.25 1.32 5.38 1.28 3.62-1.93 5-4a17.93 17.93 0 002.23-4.62A7.27 7.27 0 0122 17.32a7.44 7.44 0 013.49-6.21 7.59 7.59 0 00-5.91-3.25M36.6 4v5.46H41v3.6h-4.4V26c0 1.92.86 2.9 2.77 2.9.52 0 1.05-.05 1.56-.11v3.62a14.75 14.75 0 01-2.57.19c-4.5 0-6.24-1.75-6.24-6.13V13.14h-3.41v-3.6H32V4zm19.56 28.35h-4.77l-8-22.81h4.75l5.63 18.33h.11L59.5 9.54h4.65zm21 0H73V23h-8.87v-4.11H73V9.54h4.12v9.35h8.85V23h-8.86z" fill="#fff"/></svg>