<svg width="801" height="247" viewBox="0 0 801 247" fill="none" xmlns="http://www.w3.org/2000/svg">
<path d="M396.5 246.3V245.9C396.9 245.4 397.6 245.1 398.2 245.2C401.1 245.1 403.9 245.1 406.8 245.2C407.4 245.2 408.1 245.4 408.5 245.9V246.3H396.5Z" fill="white"/>
<path d="M408.5 245.9C404.5 245.8 400.5 245.8 396.5 245.9C391 245.6 385.5 245.4 380 245C365.4 243.9 350.9 241.7 336.7 238.4C287.6 227 244.5 204.1 206.9 170.8C203.4 167.7 200.1 164.5 196.7 161.3C195.9 160.6 195.2 159.6 194.8 158.6C194.2 157.2 194.5 155.7 195.5 154.6C196.5 153.5 198.1 153.1 199.5 153.7C200.4 154.1 201.3 154.5 202.1 155C238 177.2 277.2 193.4 318.3 203C332.1 206.2 346 208.7 360 210.5C380.1 213 400.4 213.9 420.6 213.2C431.5 212.9 442.3 211.9 453.1 210.5C478.3 207.3 503.2 201.6 527.3 193.6C540 189.4 552.4 184.6 564.5 179C566.3 178 568.5 177.7 570.5 178.2C573.8 179 575.8 182.4 575 185.7C574.9 186.1 574.7 186.6 574.5 187C573.7 188.5 572.6 189.8 571.2 190.8C559.7 199.8 547.3 207.7 534.2 214.3C509.5 226.8 483.1 235.7 455.9 240.8C440.2 243.6 424.4 245.3 408.5 245.9Z" fill="white"/>
<path d="M260.4 43.1999C262.9 41.6999 265.5 40.0999 268.2 38.6999C275.2 35.0999 283 33.2999 290.9 33.6999C296.6 33.9999 301.8 35.5999 305.8 39.7999C309.6 43.6999 311 48.4999 311.4 53.6999C311.5 54.7999 311.5 55.8999 311.5 57.0999V108.9C311.5 113.4 310.9 114 306.4 114H294.2C293.4 114 292.6 114 291.8 113.9C290.6 113.8 289.6 112.8 289.4 111.6C289.2 110.5 289.2 109.4 289.2 108.3V61.9999C289.3 60.0999 289.1 58.2999 288.6 56.4999C287.8 53.3999 285 51.1999 281.8 50.9999C275.9 50.5999 270 51.7999 264.6 54.2999C263.8 54.4999 263.3 55.2999 263.4 56.0999V108.7C263.4 109.7 263.4 110.6 263.2 111.6C263.2 113 262.1 114 260.7 114C259.2 114.1 257.7 114.1 256.1 114.1H245.5C241.8 114.1 241 113.2 241 109.5V62.1999C241 60.4999 240.9 58.6999 240.5 56.9999C239.8 53.5999 236.9 51.1999 233.5 50.9999C227.5 50.5999 221.4 51.7999 216 54.3999C215.2 54.5999 214.7 55.4999 214.9 56.2999V109.6C214.9 113.3 214.1 114.1 210.4 114.1H197C193.5 114.1 192.6 113.1 192.6 109.7V40.2999C192.6 39.4999 192.7 38.6999 192.9 37.8999C193.3 36.6999 194.5 35.9999 195.7 35.9999H208.2C210 35.9999 211.1 37.0999 211.7 38.7999C212.2 40.1999 212.5 41.4999 213 42.9999C214 42.9999 214.6 42.2999 215.3 41.8999C220.8 38.4999 226.6 35.5999 233.1 34.3999C238.1 33.3999 243.1 33.3999 248.1 34.3999C252.8 35.3999 257 38.1999 259.7 42.1999C259.9 42.4999 260.1 42.6999 260.3 42.8999C260.2 42.9999 260.3 42.9999 260.4 43.1999Z" fill="white"/>
<path d="M467.701 92.9999C468.301 90.9999 468.901 89.0999 469.501 87.0999C474.101 71.5999 478.701 56.1999 483.3 40.6999L483.901 38.8999C484.401 37.0999 486.101 35.9999 487.901 35.9999H503.101C506.901 35.9999 507.701 37.0999 506.401 40.6999L500.401 56.5999C493.701 73.9999 487 91.4999 480.3 108.9C480.1 109.5 479.801 110.1 479.601 110.7C478.901 112.8 476.801 114.2 474.601 114C470.201 113.9 465.801 113.9 461.401 114C458.301 114.1 456.501 112.7 455.401 109.9C452.901 103.3 450.3 96.5999 447.8 89.9999C441.8 74.2999 435.701 58.5999 429.701 42.7999C429.101 41.5999 428.701 40.1999 428.401 38.8999C428.101 36.8999 428.8 35.8999 430.8 35.8999C436.5 35.7999 442.2 35.8999 447.8 35.8999C450.2 35.8999 451.301 37.4999 451.901 39.5999C453.001 43.3999 454.1 47.2999 455.3 51.0999C459.4 64.9999 463.401 78.9999 467.501 92.8999C467.401 92.9999 467.501 92.9999 467.701 92.9999Z" fill="white"/>
<path d="M112.6 47C113.3 46.8 113.9 46.4 114.3 45.8C116.1 44 118 42.3 120 40.7C125.2 36.7 131.7 34.7 138.2 35.2C140.8 35.3 141.7 36.1 141.9 38.6C142.1 42 142 45.5 142 48.9C142.1 50.3 142 51.6 141.8 53C141.4 54.8 140.7 55.5 138.9 55.7C137.5 55.8 136.2 55.7 134.8 55.6C128.1 55 121.6 56.3 115.3 58.4C113.9 58.9 113.9 59.9 113.9 61V109C113.9 109.9 113.9 110.7 113.8 111.6C113.7 112.9 112.7 113.9 111.4 113.9C110.7 114 109.9 114 109.2 114H96.2C95.5 114 94.7 114 94 113.9C92.7 113.8 91.7 112.7 91.6 111.4C91.5 110.6 91.5 109.8 91.5 109V41C91.5 36.4 92 35.9 96.6 35.9H106.2C108.8 35.9 110 36.8 110.7 39.3C111.4 41.8 112 44.3 112.6 47Z" fill="white"/>
<path d="M580.4 148.4C587 148.6 593.5 149 599.9 150.7C601.7 151.2 603.4 151.8 605.1 152.6C607.4 153.5 608.9 155.7 609.2 158.1C609.6 160.9 609.7 163.8 609.5 166.7C608.2 183.8 602.9 200.3 594.1 215C590.9 220.3 587 225.1 582.5 229.3C581.6 230.2 580.5 230.9 579.3 231.3C577.4 231.8 576.2 230.8 576.1 228.9C576.2 227.9 576.4 226.9 576.8 225.9C580.3 216.5 583.7 207.2 586.4 197.5C588 192.2 589.1 186.8 589.8 181.3C590 179.3 590.1 177.3 589.9 175.3C589.8 171.9 587.6 169 584.3 168C581.2 167 578 166.4 574.7 166.2C565.5 165.8 556.3 166.2 547.2 167.4L535.1 168.9C533.8 169 532.6 168.9 531.9 167.7C531.2 166.5 531.5 165.3 532.2 164.1C533 163 534 162 535.2 161.3C542.6 156 550.9 152.8 559.7 150.7C566.5 149.3 573.4 148.6 580.4 148.4Z" fill="white"/>
<path d="M538.5 75V111C538.3 113 537.4 113.9 535.4 114C530 114.1 524.7 114.1 519.3 114C517.3 114 516.4 113 516.2 111.1C516.1 110.5 516.1 109.8 516.1 109.2V40C516.2 36.9 517 36 520.1 36H534.5C537.6 36 538.5 36.9 538.5 40V75Z" fill="white"/>
<path d="M151.6 74.7997V39.2997C151.7 36.8997 152.6 35.9997 155 35.8997C160.2 35.7997 165.4 35.7997 170.6 35.8997C172.9 35.8997 173.6 36.5997 173.8 38.8997C173.9 39.7997 173.9 40.5997 173.9 41.4997V108.1C173.9 109.2 173.8 110.3 173.7 111.4C173.6 112.7 172.6 113.6 171.3 113.7C170.7 113.8 170.2 113.8 169.6 113.8H155.7C155.2 113.8 154.8 113.8 154.3 113.7C152.9 113.6 151.7 112.5 151.6 111.1C151.5 110.3 151.5 109.5 151.5 108.7C151.6 97.5997 151.6 86.1997 151.6 74.7997Z" fill="white"/>
<path d="M163.199 0.0997266C164.799 -0.000273421 166.399 0.299727 167.899 0.799727C173.299 2.59973 176.099 7.29973 175.599 13.3997C175.199 18.5997 171.299 22.7997 166.099 23.5997C163.899 23.9997 161.599 23.9997 159.399 23.5997C153.699 22.4997 149.499 18.2997 149.899 11.0997C150.499 3.99973 155.199 0.0997266 163.199 0.0997266Z" fill="white"/>
<path d="M527.401 0.0997949C529.401 -0.100205 531.401 0.299795 533.301 1.09979C537.201 2.59979 539.901 6.19979 540.101 10.3998C540.901 19.4998 534.801 24.0998 526.701 23.8998C525.601 23.8998 524.501 23.6998 523.401 23.4998C517.201 21.9998 514.001 17.1998 514.601 10.2998C515.101 4.7998 519.401 0.699795 525.301 0.199795C526.001 0.0997949 526.701 -0.000205077 527.401 0.0997949Z" fill="white"/>
<path d="M76.7 66.5998C76.3 61.3998 74.9 56.2998 72.8 51.5998C68.7 42.9998 62.4 36.6998 52.8 34.4998C41.8 32.0998 31.9 34.4998 22.9 41.1998C22.3 41.7998 21.6 42.2998 20.8 42.6998C20.6 42.5998 20.4 42.4998 20.4 42.3998C20.1 41.3998 19.9 40.3998 19.6 39.3998C18.8 36.8998 17.8 35.9998 15.1 35.9998C12.1 35.9998 9 36.0998 6 35.9998C3.7 35.8998 1.6 36.1998 0 37.9998C0 72.9998 0 108.1 0.1 143C1.4 145.1 3.4 145.5 5.7 145.4C9.3 145.3 12.9 145.4 16.5 145.4C22.8 145.4 22.8 145.4 22.8 139.2V110.7C22.8 110 22.5 109.2 23.2 108.6C28.2 112.5 34.3 114.9 40.6 115.5C49.4 116.4 57.4 114.2 64.1 108.2C69 103.7 72.6 97.8998 74.5 91.4998C77.2 83.2998 77.4 74.9998 76.7 66.5998ZM52.8 87.2998C52.1 90.3998 50.5 93.1998 48.2 95.2998C45.6 97.4998 42.4 98.7998 39 98.7998C33.9 99.0998 28.9 97.9998 24.4 95.5998C23.3 95.0998 22.6 93.9998 22.7 92.7998V74.6998C22.7 68.6998 22.8 62.6998 22.7 56.6998C22.6 55.2998 23.4 54.0998 24.7 53.5998C30.2 50.9998 35.9 49.7998 41.9 50.9998C46.1 51.5998 49.7 54.2998 51.4 58.1998C52.9 61.3998 53.8 64.8998 54 68.3998C54.6 74.7998 54.6 81.1998 52.8 87.2998Z" fill="white"/>
<path d="M800.201 68.7998V69.1998C799.801 68.7998 799.601 68.1998 799.801 67.6998V66.8998C799.801 66.8998 799.801 66.7998 799.901 66.7998H799.801V65.7998H800.001C800.001 65.6998 799.901 65.6998 799.901 65.5998C799.701 63.6998 799.301 61.7998 798.801 59.9998C795.101 46.7998 786.801 38.0998 773.301 34.6998C767.001 33.1998 760.601 32.9998 754.201 33.9998C740.701 35.9998 731.001 43.1998 726.301 55.9998C721.701 68.1998 721.801 81.5998 726.401 93.7998C730.401 104.9 738.401 111.9 749.901 114.8C756.001 116.3 762.401 116.7 768.701 115.8C789.701 113.3 798.401 97.3998 799.801 83.5998H799.701V82.1998C799.601 81.5998 799.501 81.0998 800.101 80.6998V80.8998C800.101 80.7998 800.201 80.5998 800.301 80.4998V68.9998C800.301 68.8998 800.201 68.8998 800.201 68.7998ZM776.201 87.7998C775.601 89.8998 774.701 91.7998 773.401 93.5998C771.201 96.6998 767.701 98.6998 763.901 98.9998C762.001 99.1998 760.101 99.1998 758.201 98.7998C754.001 97.9998 750.501 95.1998 748.801 91.2998C747.301 88.1998 746.401 84.7998 746.101 81.3998C745.601 75.4998 745.501 69.5998 746.901 63.7998C747.401 61.4998 748.401 59.1998 749.601 57.1998C751.801 53.5998 755.601 51.2998 759.801 50.9998C761.701 50.7998 763.601 50.7998 765.501 51.1998C769.501 51.9998 772.801 54.5998 774.601 58.2998C776.301 61.7998 777.301 65.6998 777.501 69.5998C777.601 71.3998 777.701 73.1998 777.601 74.9998C777.901 79.3998 777.401 83.6998 776.201 87.7998Z" fill="white"/>
<path d="M624.899 0.799805H610.999C607.199 0.799805 606.499 1.4998 606.499 5.2998V37.6998C606.499 38.3998 606.799 39.0998 606.299 39.7998C605.399 39.6998 604.899 39.0998 604.199 38.6998C593.799 32.5998 582.899 31.4998 571.899 36.5998C564.199 40.1998 559.399 46.6998 556.299 54.3998C553.299 61.7998 552.599 69.5998 552.799 77.4998C552.799 84.8998 554.499 92.1998 557.799 98.7998C561.599 106.1 567.099 111.7 575.099 114.1C585.999 117.5 596.199 115.8 605.499 108.9C606.199 108.5 606.599 107.8 607.499 107.6C607.999 108.7 608.399 109.9 608.599 111.1C608.999 112.7 610.399 113.8 612.099 113.8H614.499C618.099 113.8 621.599 113.9 625.099 113.8C627.899 113.8 628.699 112.9 628.799 110V4.5998C628.699 1.4998 627.899 0.799805 624.899 0.799805ZM606.599 74.3998V92.5998C606.799 93.7998 606.099 94.8998 604.999 95.3998C600.199 98.0998 594.699 99.1998 589.299 98.3998C584.699 97.8998 580.699 95.0998 578.599 90.9998C576.999 87.7998 576.099 84.3998 575.799 80.8998C574.999 74.5998 575.499 68.1998 576.999 62.0998C577.499 60.3998 578.099 58.7998 578.999 57.1998C581.099 53.2998 585.099 50.7998 589.499 50.4998C594.799 49.9998 600.099 50.9998 604.899 53.1998C606.099 53.5998 606.799 54.7998 606.699 56.0998C606.499 62.2998 606.599 68.2998 606.599 74.3998Z" fill="white"/>
<path d="M348 81.3C355.5 82.7 363.2 82.8 370.7 81.6C375.1 81 379.3 79.7 383.2 77.6C387.7 75 391 71.4 392.4 66.4C395.9 53.8 390.5 41.1 377.4 36.4C371 34.3 364.2 33.6 357.5 34.5C341.7 36.3 331.4 45 326.7 60.1C323.4 70.4 323.8 80.9 326.5 91.3C330 104.6 338.8 112.5 352.1 115.3C359.7 117 367.4 116.7 375 115.5C379 114.8 383 113.8 386.8 112.3C389.1 111.4 390.3 110 390.2 107.4C390.1 105 390.2 102.5 390.2 100C390.2 97 389 96.1 386.1 96.8C383.2 97.5 380.4 98.1 377.5 98.7C371.3 100 364.9 100 358.7 98.9C350.2 97.2 344.7 89.9 345.2 80.9C346.1 81 347.1 81.1 348 81.3ZM345.5 66C345.8 63.6 346.5 61.3 347.4 59.1C350.4 51.8 356.7 49.3 363.1 49.7C364.9 49.8 366.7 50.2 368.4 50.9C371 52 372.7 54.4 373 57.2C373.3 58.9 373.2 60.7 372.7 62.4C371.5 66 368.6 67.5 365.1 68.2C363 68.7 360.8 68.9 358.6 68.7C354.7 68.7 350.7 68.4 346.8 67.8C345.3 67.6 345.3 67.6 345.5 66Z" fill="white"/>
<path d="M685.3 82.3C691.1 81.9 696.9 80.8 702.1 78C707.4 75.4 711.1 70.5 712.2 64.7C712.9 61.1 712.9 57.3 712.1 53.7C710 44.7 704.3 39.1 695.7 36.2C690.9 34.7 685.8 34.1 680.8 34.3C664 34.7 651.2 43.2 646 60C642.5 71.1 643 82.4 646.4 93.5C649.9 104.9 657.9 111.8 669.3 114.9C674.2 116.1 679.3 116.6 684.3 116.4C691.6 116.3 698.9 114.9 705.8 112.3C708.7 111.2 709.4 110.2 709.4 107.1V99.9C709.3 97 708.1 96 705.2 96.7C703 97.3 700.9 97.8 698.7 98.3C692 99.9 685 100.2 678.2 99C671.4 97.7 666.8 93.8 665 87C664.5 85 664.1 83 663.9 80.9C664.4 80.9 664.9 80.9 665.3 81.1C671.9 82.3 678.6 82.8 685.3 82.3ZM664.4 66.3C665.1 62.4 666 58.6 668.4 55.4C672.1 50.5 677.2 49.1 683 49.7C683.5 49.7 683.9 49.9 684.4 49.9C691.4 51 693.1 56.6 691.8 62C690.8 66 687.5 67.5 683.8 68.2C681.8 68.6 679.7 68.8 677.6 68.7C673.5 68.6 669.5 68.3 665.5 67.7C664.6 67.6 664.2 67.2 664.4 66.3Z" fill="white"/>
</svg>
