<svg width="1059" height="241" viewBox="0 0 1059 241" fill="none" xmlns="http://www.w3.org/2000/svg">
<g clip-path="url(#clip0)">
<path fill-rule="evenodd" clip-rule="evenodd" d="M302.496 9.69492C316.901 13.85 328.258 24.9307 332.136 39.6123C339.062 65.9284 339.339 120.777 339.339 120.777C339.339 120.777 339.339 175.348 332.413 201.664C328.258 216.069 316.901 227.426 302.496 231.304C276.18 238.229 170.916 238.229 170.916 238.229C170.916 238.229 65.6512 238.229 39.6121 231.304C24.9306 227.426 13.85 216.069 9.69492 201.387C2.76962 175.348 2.76953 120.5 2.76953 120.5C2.76953 120.5 2.76962 65.9284 9.69492 39.6123C13.573 24.9307 24.9306 13.573 39.3351 9.69492C65.6512 2.76962 170.916 2.76953 170.916 2.76953C170.916 2.76953 276.18 2.76962 302.496 9.69492ZM224.938 120.502L137.402 170.918V70.0861L224.938 120.502Z" fill="white"/>
<path d="M491.143 217.177C483.941 212.19 478.954 204.711 477.015 196.124C473.968 183.658 472.583 171.193 472.86 158.45V137.12C472.583 124.101 474.245 111.358 477.846 98.8929C480.34 90.3055 485.603 82.8262 492.805 77.84C500.838 73.1308 510.257 70.9146 519.675 71.1916C530.479 71.1916 539.343 73.4077 545.991 77.84C552.916 83.1032 558.18 90.3055 560.396 98.8929C563.72 111.358 565.382 124.101 564.828 137.12V158.45C565.105 171.193 563.72 183.935 560.396 196.401C558.18 204.988 553.194 212.19 545.991 217.454C539.343 221.886 530.202 224.102 518.844 224.102C507.209 223.825 497.791 221.609 491.143 217.177ZM528.54 193.908C530.479 189.199 531.31 181.165 531.31 170.362V124.655C531.587 116.899 530.756 108.865 528.54 101.386C527.431 96.9538 523.276 93.9066 518.844 93.9066C514.412 93.9066 510.534 96.9538 509.426 101.386C507.21 108.865 506.379 116.899 506.656 124.655V170.639C506.656 181.442 507.487 189.476 509.426 194.185C510.534 198.617 514.412 201.664 519.121 201.387C523.553 201.387 527.431 198.34 528.54 193.908ZM1002.51 158.727V166.207C1002.51 173.409 1002.78 180.334 1003.34 187.536C1003.61 191.137 1004.72 194.739 1006.94 197.786C1009.15 200.002 1012.2 201.387 1015.25 201.11C1019.4 201.386 1023.56 199.171 1025.5 195.293C1027.44 191.415 1028.27 185.043 1028.55 175.902L1057.08 177.841C1057.36 179.503 1057.36 181.442 1057.36 183.104C1057.36 196.678 1053.75 206.927 1046.27 213.575C1038.8 220.224 1028.27 223.548 1014.7 223.548C998.352 223.548 986.994 218.285 980.346 208.035C973.698 197.786 970.374 181.996 970.374 160.389V134.627C970.374 112.466 973.698 96.3996 980.623 86.1501C987.548 75.9007 999.183 70.9146 1015.53 70.9146C1026.88 70.9146 1035.75 73.1308 1041.84 77.286C1048.21 81.9951 1052.92 88.9205 1054.86 96.6767C1057.63 108.588 1059.02 121.054 1058.46 133.242V158.45L1002.51 158.727ZM1006.66 96.6767C1004.72 99.724 1003.34 103.325 1003.34 106.926C1002.78 114.128 1002.51 121.331 1002.51 128.533V139.06H1026.88V128.533C1026.88 121.331 1026.61 114.128 1025.77 106.926C1025.5 103.325 1024.39 99.724 1022.17 96.6767C1020.23 94.4607 1017.19 93.3525 1014.42 93.6296C1011.37 93.3521 1008.6 94.4609 1006.66 96.6767H1006.66ZM410.256 155.957L372.582 19.3906H405.546L418.843 81.1642C422.167 96.3998 424.66 109.419 426.322 120.223H427.43C428.538 112.466 431.031 99.724 434.91 81.4412L448.76 19.3906H481.724L443.497 155.957V221.609H410.533V155.957H410.256ZM672.031 73.9618V221.609H645.992L643.222 203.603H642.391C635.466 217.177 624.662 224.102 610.535 224.102C600.839 224.102 593.637 220.778 588.928 214.407C584.218 208.035 582.002 198.063 582.002 184.212V73.9618H615.244V182.273C614.966 186.983 615.798 191.969 617.46 196.401C618.845 199.171 621.615 200.833 624.662 200.556C627.709 200.556 630.48 199.448 632.973 197.786C635.466 196.124 637.682 193.908 638.79 191.138V73.9618H672.031ZM842.394 73.9618V221.609H816.354L813.584 203.603H812.753C805.828 217.177 795.024 224.102 780.897 224.102C771.201 224.102 763.999 220.778 759.29 214.407C754.581 208.035 752.364 198.063 752.364 184.212V73.9618H785.606V182.273C785.328 186.983 786.16 191.969 787.822 196.401C789.207 199.171 791.977 200.833 795.024 200.556C798.071 200.556 800.841 199.448 803.335 197.786C805.828 196.124 808.044 193.908 809.152 191.138V73.9618H842.394Z" fill="white"/>
<path d="M762.335 46.2634H729.371V221.612H696.96V46.2634H663.996V19.3935H762.335V46.2634ZM952.365 97.5107C950.426 88.3692 947.102 81.444 942.67 77.2888C937.497 72.9205 930.875 70.6474 924.11 70.9175C918.016 70.9175 912.198 72.5796 906.935 76.1808C901.672 79.5049 897.517 84.2139 894.747 89.7542H894.469V11.9141H862.613V221.612H890.037L893.361 207.761H894.192C896.686 212.748 900.841 216.903 905.827 219.673C911.09 222.443 916.907 224.105 923.001 224.105C933.528 224.382 943.5 218.287 947.933 208.592C953.196 198.343 955.966 181.999 955.966 160.115V136.846C955.689 123.273 954.581 110.253 952.365 97.5107H952.365ZM921.894 157.622C921.894 165.932 921.616 174.52 920.509 182.83C920.231 187.539 918.57 191.971 916.076 195.85C914.137 198.343 911.09 199.728 907.766 199.728C904.996 199.728 902.503 199.174 900.287 197.789C898.071 196.404 896.132 194.465 894.747 191.971V108.314C895.855 104.436 897.794 101.112 900.564 98.3417C902.78 95.8486 906.104 94.4635 909.428 94.4635C912.475 94.4635 915.523 95.8486 917.185 98.3417C919.401 102.497 920.786 106.929 921.063 111.638C921.894 120.503 922.171 129.367 922.171 138.231L921.894 157.622Z" fill="white"/>
</g>
<defs>
<clipPath id="clip0">
<rect width="1058.18" height="241" fill="white"/>
</clipPath>
</defs>
</svg>
